<svg xmlns="http://www.w3.org/2000/svg" xmlns:xlink="http://www.w3.org/1999/xlink" width="500" zoomAndPan="magnify" viewBox="0 0 375 374.999991" height="500" preserveAspectRatio="xMidYMid meet" version="1.0"><defs><g/><clipPath id="fe9fa48617"><path d="M 74.535156 74.535156 L 300.464844 74.535156 L 300.464844 300.464844 L 74.535156 300.464844 Z M 74.535156 74.535156 " clip-rule="nonzero"/></clipPath><clipPath id="b7ef531830"><path d="M 187.5 74.535156 C 125.109375 74.535156 74.535156 125.109375 74.535156 187.5 C 74.535156 249.890625 125.109375 300.464844 187.5 300.464844 C 249.890625 300.464844 300.464844 249.890625 300.464844 187.5 C 300.464844 125.109375 249.890625 74.535156 187.5 74.535156 " clip-rule="nonzero"/></clipPath><clipPath id="6f2b53c5db"><path d="M 118.539062 118.539062 L 256.539062 118.539062 L 256.539062 256.539062 L 118.539062 256.539062 Z M 118.539062 118.539062 " clip-rule="nonzero"/></clipPath><clipPath id="8418d52f85"><path d="M 269.492188 184.1875 L 287.09375 184.1875 L 287.09375 200.683594 L 269.492188 200.683594 Z M 269.492188 184.1875 " clip-rule="nonzero"/></clipPath><clipPath id="d68d7f245e"><path d="M 87.890625 184.1875 L 105.492188 184.1875 L 105.492188 200.683594 L 87.890625 200.683594 Z M 87.890625 184.1875 " clip-rule="nonzero"/></clipPath></defs><g clip-path="url(#fe9fa48617)"><g clip-path="url(#b7ef531830)"><path fill="#000000" d="M 74.535156 74.535156 L 300.464844 74.535156 L 300.464844 300.464844 L 74.535156 300.464844 Z M 74.535156 74.535156 " fill-opacity="1" fill-rule="nonzero"/></g></g><g fill="#ffffff" fill-opacity="1"><g transform="translate(109.589636, 170.90148)"><g><path d="M -14.40625 -12.46875 C -13.78125 -14.59375 -12.65625 -16.347656 -11.03125 -17.734375 L -8.90625 -15.859375 C -10.40625 -14.484375 -11.382812 -13.019531 -11.84375 -11.46875 C -12.082031 -10.644531 -12.125 -9.945312 -11.96875 -9.375 C -11.820312 -8.8125 -11.46875 -8.445312 -10.90625 -8.28125 C -10.351562 -8.113281 -9.816406 -8.195312 -9.296875 -8.53125 C -8.785156 -8.863281 -8.34375 -9.332031 -7.96875 -9.9375 C -7.601562 -10.550781 -7.171875 -11.195312 -6.671875 -11.875 C -6.171875 -12.5625 -5.671875 -13.191406 -5.171875 -13.765625 C -4.679688 -14.347656 -4.046875 -14.757812 -3.265625 -15 C -2.484375 -15.238281 -1.628906 -15.222656 -0.703125 -14.953125 C 0.742188 -14.535156 1.726562 -13.617188 2.25 -12.203125 C 2.78125 -10.796875 2.78125 -9.171875 2.25 -7.328125 C 1.875 -6.066406 1.28125 -4.914062 0.46875 -3.875 C -0.34375 -2.84375 -1.273438 -2 -2.328125 -1.34375 L -4.40625 -3.25 C -3.394531 -3.863281 -2.53125 -4.609375 -1.8125 -5.484375 C -1.101562 -6.359375 -0.613281 -7.242188 -0.34375 -8.140625 C -0.0625 -9.109375 -0.0195312 -9.914062 -0.21875 -10.5625 C -0.414062 -11.21875 -0.832031 -11.640625 -1.46875 -11.828125 C -2.039062 -11.992188 -2.578125 -11.910156 -3.078125 -11.578125 C -3.585938 -11.242188 -4.03125 -10.773438 -4.40625 -10.171875 C -4.78125 -9.566406 -5.210938 -8.914062 -5.703125 -8.21875 C -6.191406 -7.53125 -6.675781 -6.894531 -7.15625 -6.3125 C -7.644531 -5.726562 -8.273438 -5.3125 -9.046875 -5.0625 C -9.816406 -4.8125 -10.660156 -4.820312 -11.578125 -5.09375 C -12.972656 -5.5 -13.925781 -6.375 -14.4375 -7.71875 C -14.945312 -9.070312 -14.9375 -10.65625 -14.40625 -12.46875 Z M -14.40625 -12.46875 "/></g></g></g><g fill="#ffffff" fill-opacity="1"><g transform="translate(114.467736, 154.636519)"><g><path d="M -13.953125 -10.328125 L -10.625 -16.328125 C -9.570312 -18.210938 -8.3125 -19.421875 -6.84375 -19.953125 C -5.375 -20.492188 -3.820312 -20.316406 -2.1875 -19.421875 C -0.488281 -18.472656 0.539062 -17.21875 0.90625 -15.65625 C 1.28125 -14.101562 0.941406 -12.382812 -0.109375 -10.5 L -2.03125 -7.03125 L 2.5 -4.515625 L 1.09375 -1.984375 Z M -10.265625 -11.59375 L -4.3125 -8.296875 L -2.453125 -11.65625 C -1.109375 -14.070312 -1.445312 -15.835938 -3.46875 -16.953125 C -5.414062 -18.035156 -7.0625 -17.367188 -8.40625 -14.953125 Z M -10.265625 -11.59375 "/></g></g></g><g fill="#ffffff" fill-opacity="1"><g transform="translate(123.324976, 138.846003)"><g><path d="M 6.203125 -12.484375 L 0.3125 -6.09375 L 2.0625 -2.234375 L 0.015625 -0.015625 L -7.484375 -17.265625 L -5.484375 -19.453125 L 12.265625 -13.328125 L 10.171875 -11.046875 Z M 3.546875 -13.390625 L -4.265625 -16.1875 L -0.84375 -8.625 Z M 3.546875 -13.390625 "/></g></g></g><g fill="#ffffff" fill-opacity="1"><g transform="translate(136.774562, 124.546486)"><g><path d="M 11 -7.234375 L 5.515625 -9.859375 C 5.390625 -9.753906 5.175781 -9.601562 4.875 -9.40625 L 1.46875 -7.15625 L 4.3125 -2.828125 L 1.890625 -1.25 L -7.5625 -15.625 L -1.734375 -19.453125 C 0.0976562 -20.660156 1.800781 -21.164062 3.375 -20.96875 C 4.957031 -20.78125 6.265625 -19.910156 7.296875 -18.359375 C 8.046875 -17.203125 8.421875 -16.054688 8.421875 -14.921875 C 8.429688 -13.796875 8.082031 -12.726562 7.375 -11.71875 L 13.765625 -9.046875 Z M 0.03125 -9.34375 L 3.4375 -11.59375 C 5.769531 -13.125 6.300781 -14.851562 5.03125 -16.78125 C 3.8125 -18.632812 2.035156 -18.796875 -0.296875 -17.265625 L -3.703125 -15.015625 Z M 0.03125 -9.34375 "/></g></g></g><g fill="#ffffff" fill-opacity="1"><g transform="translate(152.994169, 114.108983)"><g><path d="M 12.953125 -4.578125 L 5.09375 -9.859375 L 3.40625 -5.84375 L 4.859375 -1.71875 L 2.140625 -0.75 L -3.59375 -16.96875 L -0.875 -17.9375 L 2.09375 -9.5625 L 6.875 -20.671875 L 10.09375 -21.8125 L 6.265625 -12.671875 L 16.25 -5.734375 Z M 12.953125 -4.578125 "/></g></g></g><g fill="#ffffff" fill-opacity="1"><g transform="translate(171.388282, 108.068194)"><g><path d="M 4.78125 -3.25 L 12.1875 -4.171875 L 12.515625 -1.5625 L 2.25 -0.28125 L 0.125 -17.359375 L 2.984375 -17.71875 Z M 4.78125 -3.25 "/></g></g></g><g fill="#ffffff" fill-opacity="1"><g transform="translate(186.227635, 106.257788)"><g><path d="M 15.71875 -13.328125 L 6.359375 -14.109375 L 5.96875 -9.484375 L 14.34375 -8.796875 L 14.125 -6.1875 L 5.75 -6.875 L 5.359375 -2.15625 L 15.015625 -1.359375 L 14.796875 1.234375 L 2.25 0.1875 L 3.6875 -16.953125 L 15.9375 -15.921875 Z M 15.71875 -13.328125 "/></g></g></g><g fill="#ffffff" fill-opacity="1"><g transform="translate(204.343522, 108.368492)"><g/></g></g><g fill="#ffffff" fill-opacity="1"><g transform="translate(212.593185, 110.141448)"><g><path d="M 13.765625 2.078125 L 5.875 -1.5625 L 2.765625 1.28125 L 0.03125 0.015625 L 14.140625 -12.421875 L 16.84375 -11.1875 L 16.4375 7.59375 L 13.625 6.296875 Z M 13.859375 -0.734375 L 14.109375 -9.03125 L 7.96875 -3.453125 Z M 13.859375 -0.734375 "/></g></g></g><g fill="#ffffff" fill-opacity="1"><g transform="translate(230.32056, 118.484401)"><g><path d="M 23.953125 -2.671875 L 17.59375 5.140625 C 16.175781 6.878906 14.546875 7.832031 12.703125 8 C 10.859375 8.164062 9.03125 7.507812 7.21875 6.03125 C 5.414062 4.5625 4.40625 2.90625 4.1875 1.0625 C 3.96875 -0.78125 4.566406 -2.570312 5.984375 -4.3125 L 12.34375 -12.125 L 14.59375 -10.3125 L 8.234375 -2.5 C 7.328125 -1.382812 6.929688 -0.242188 7.046875 0.921875 C 7.160156 2.097656 7.769531 3.132812 8.875 4.03125 C 9.96875 4.925781 11.085938 5.3125 12.234375 5.1875 C 13.390625 5.0625 14.425781 4.429688 15.34375 3.296875 L 21.703125 -4.515625 Z M 23.953125 -2.671875 "/></g></g></g><g fill="#ffffff" fill-opacity="1"><g transform="translate(245.842639, 131.694202)"><g><path d="M 20.109375 2.140625 L 16.765625 -2.1875 L 5.234375 6.75 L 3.46875 4.46875 L 15 -4.46875 L 11.671875 -8.765625 L 13.734375 -10.359375 L 22.171875 0.546875 Z M 20.109375 2.140625 "/></g></g></g><g fill="#ffffff" fill-opacity="1"><g transform="translate(255.658959, 144.136389)"><g><path d="M 14.890625 -2.921875 C 17.128906 -2.015625 18.78125 -0.390625 19.84375 1.953125 C 20.90625 4.304688 21.035156 6.625 20.234375 8.90625 C 19.429688 11.195312 17.910156 12.84375 15.671875 13.84375 C 13.441406 14.851562 11.203125 14.90625 8.953125 14 C 6.703125 13.09375 5.046875 11.460938 3.984375 9.109375 C 2.921875 6.765625 2.796875 4.445312 3.609375 2.15625 C 4.421875 -0.132812 5.941406 -1.78125 8.171875 -2.78125 C 10.410156 -3.789062 12.648438 -3.835938 14.890625 -2.921875 Z M 17.484375 3.0625 C 16.773438 1.507812 15.640625 0.421875 14.078125 -0.203125 C 12.515625 -0.828125 10.957031 -0.785156 9.40625 -0.078125 C 7.851562 0.617188 6.785156 1.769531 6.203125 3.375 C 5.617188 4.976562 5.675781 6.546875 6.375 8.078125 C 7.070312 9.617188 8.207031 10.6875 9.78125 11.28125 C 11.351562 11.882812 12.914062 11.832031 14.46875 11.125 C 16.019531 10.425781 17.082031 9.289062 17.65625 7.71875 C 18.238281 6.15625 18.179688 4.601562 17.484375 3.0625 Z M 17.484375 3.0625 "/></g></g></g><g fill="#ffffff" fill-opacity="1"><g transform="translate(263.877039, 164.342895)"><g/></g></g><g fill="#ffffff" fill-opacity="1"><g transform="translate(99.067801, 223.126059)"><g><path d="M 1.453125 3.125 L 0.640625 1.375 L 11.046875 -3.453125 L 11.859375 -1.703125 Z M 1.453125 3.125 "/></g></g></g><g fill="#ffffff" fill-opacity="1"><g transform="translate(102.258828, 230.188002)"><g><path d="M 6.046875 9.71875 L 5.046875 8.125 L 8.796875 -1.421875 L 1.8125 2.921875 L 0.796875 1.28125 L 10.53125 -4.78125 L 11.53125 -3.171875 L 7.796875 6.421875 L 14.78125 2.0625 L 15.78125 3.65625 Z M 6.046875 9.71875 "/></g></g></g><g fill="#ffffff" fill-opacity="1"><g transform="translate(110.955672, 243.513115)"><g><path d="M 13.46875 0.828125 L 11.109375 -1.953125 L 3.6875 4.34375 L 2.4375 2.875 L 9.859375 -3.421875 L 7.515625 -6.1875 L 8.828125 -7.3125 L 14.78125 -0.296875 Z M 13.46875 0.828125 "/></g></g></g><g fill="#ffffff" fill-opacity="1"><g transform="translate(119.067625, 252.832553)"><g><path d="M 13.71875 -0.765625 L 9.0625 -4.953125 L 7 -2.640625 L 11.171875 1.109375 L 10.015625 2.390625 L 5.84375 -1.359375 L 3.71875 1 L 8.53125 5.328125 L 7.375 6.625 L 1.125 1.015625 L 8.78125 -7.515625 L 14.875 -2.046875 Z M 13.71875 -0.765625 "/></g></g></g><g fill="#ffffff" fill-opacity="1"><g transform="translate(129.379162, 261.851426)"><g><path d="M 7.328125 4.84375 L 7.484375 0.796875 C 7.398438 0.742188 7.253906 0.648438 7.046875 0.515625 L 4.78125 -0.984375 L 2.875 1.890625 L 1.265625 0.828125 L 7.578125 -8.75 L 11.453125 -6.1875 C 12.679688 -5.375 13.441406 -4.457031 13.734375 -3.4375 C 14.035156 -2.425781 13.847656 -1.40625 13.171875 -0.375 C 12.660156 0.394531 12.0625 0.929688 11.375 1.234375 C 10.6875 1.535156 9.9375 1.601562 9.125 1.4375 L 9.171875 6.046875 Z M 5.734375 -2.453125 L 8 -0.953125 C 9.550781 0.078125 10.75 -0.046875 11.59375 -1.328125 C 12.414062 -2.566406 12.050781 -3.703125 10.5 -4.734375 L 8.234375 -6.234375 Z M 5.734375 -2.453125 "/></g></g></g><g fill="#ffffff" fill-opacity="1"><g transform="translate(141.747249, 269.584201)"><g><path d="M 3.0625 1.546875 L 1.359375 0.6875 L 6.53125 -9.546875 L 8.234375 -8.6875 Z M 3.0625 1.546875 "/></g></g></g><g fill="#ffffff" fill-opacity="1"><g transform="translate(148.637757, 273.15336)"><g><path d="M 5.484375 -8.5 C 6.960938 -9.15625 8.507812 -9.191406 10.125 -8.609375 C 11.75 -8.023438 12.921875 -7.015625 13.640625 -5.578125 C 14.367188 -4.140625 14.457031 -2.648438 13.90625 -1.109375 C 13.363281 0.421875 12.351562 1.519531 10.875 2.1875 C 9.394531 2.851562 7.84375 2.894531 6.21875 2.3125 C 4.601562 1.726562 3.4375 0.710938 2.71875 -0.734375 C 2 -2.179688 1.910156 -3.671875 2.453125 -5.203125 C 3.003906 -6.742188 4.015625 -7.84375 5.484375 -8.5 Z M 9.5625 -6.96875 C 8.5 -7.34375 7.453125 -7.296875 6.421875 -6.828125 C 5.398438 -6.367188 4.695312 -5.601562 4.3125 -4.53125 C 3.9375 -3.46875 3.992188 -2.425781 4.484375 -1.40625 C 4.984375 -0.394531 5.765625 0.296875 6.828125 0.671875 C 7.890625 1.054688 8.925781 1.007812 9.9375 0.53125 C 10.957031 0.0507812 11.65625 -0.71875 12.03125 -1.78125 C 12.414062 -2.851562 12.363281 -3.890625 11.875 -4.890625 C 11.394531 -5.890625 10.625 -6.582031 9.5625 -6.96875 Z M 9.5625 -6.96875 "/></g></g></g><g fill="#ffffff" fill-opacity="1"><g transform="translate(164.090953, 278.353591)"><g><path d="M 8.640625 1.578125 L 7.203125 -2.203125 C 7.097656 -2.210938 6.925781 -2.238281 6.6875 -2.28125 L 4 -2.765625 L 3.375 0.625 L 1.484375 0.265625 L 3.546875 -11.015625 L 8.125 -10.171875 C 9.5625 -9.910156 10.613281 -9.367188 11.28125 -8.546875 C 11.957031 -7.734375 12.1875 -6.71875 11.96875 -5.5 C 11.800781 -4.59375 11.457031 -3.863281 10.9375 -3.3125 C 10.425781 -2.769531 9.765625 -2.414062 8.953125 -2.25 L 10.8125 1.96875 Z M 4.3125 -4.5 L 7 -4.015625 C 8.832031 -3.679688 9.882812 -4.265625 10.15625 -5.765625 C 10.425781 -7.234375 9.644531 -8.132812 7.8125 -8.46875 L 5.125 -8.953125 Z M 4.3125 -4.5 "/></g></g></g><g fill="#ffffff" fill-opacity="1"><g transform="translate(178.476004, 280.613237)"><g/></g></g><g fill="#ffffff" fill-opacity="1"><g transform="translate(185.402399, 281.139665)"><g><path d="M 6.125 -11.765625 C 6.925781 -11.796875 7.710938 -11.671875 8.484375 -11.390625 C 9.265625 -11.117188 9.953125 -10.71875 10.546875 -10.1875 L 9.453125 -8.75 C 9.023438 -9.175781 8.519531 -9.503906 7.9375 -9.734375 C 7.363281 -9.972656 6.789062 -10.078125 6.21875 -10.046875 C 5.070312 -10.003906 4.117188 -9.578125 3.359375 -8.765625 C 2.609375 -7.960938 2.253906 -7 2.296875 -5.875 C 2.335938 -4.738281 2.769531 -3.796875 3.59375 -3.046875 C 4.425781 -2.296875 5.414062 -1.941406 6.5625 -1.984375 C 7.75 -2.035156 8.785156 -2.535156 9.671875 -3.484375 L 10.875 -2.25 C 10.3125 -1.644531 9.644531 -1.15625 8.875 -0.78125 C 8.101562 -0.414062 7.320312 -0.21875 6.53125 -0.1875 C 4.84375 -0.113281 3.398438 -0.613281 2.203125 -1.6875 C 1.015625 -2.757812 0.390625 -4.117188 0.328125 -5.765625 C 0.265625 -7.390625 0.789062 -8.78125 1.90625 -9.9375 C 3.019531 -11.09375 4.425781 -11.703125 6.125 -11.765625 Z M 6.125 -11.765625 "/></g></g></g><g fill="#ffffff" fill-opacity="1"><g transform="translate(199.655737, 280.273696)"><g><path d="M 3.078125 -2.3125 L 7.96875 -3.1875 L 8.28125 -1.46875 L 1.5 -0.265625 L -0.5 -11.5625 L 1.390625 -11.890625 Z M 3.078125 -2.3125 "/></g></g></g><g fill="#ffffff" fill-opacity="1"><g transform="translate(211.049533, 278.128985)"><g><path d="M 6.3125 -12.21875 L 0.34375 -10.3125 L 1.28125 -7.359375 L 6.625 -9.0625 L 7.140625 -7.40625 L 1.796875 -5.703125 L 2.75 -2.6875 L 8.90625 -4.640625 L 9.4375 -2.984375 L 1.4375 -0.453125 L -2.03125 -11.390625 L 5.78125 -13.875 Z M 6.3125 -12.21875 "/></g></g></g><g fill="#ffffff" fill-opacity="1"><g transform="translate(224.065281, 273.826702)"><g><path d="M 6.875 -6.265625 L 1.671875 -3.703125 L 1.828125 -0.890625 L 0.015625 0 L -0.5 -12.53125 L 1.28125 -13.40625 L 10.84375 -5.328125 L 8.984375 -4.421875 Z M 5.421875 -7.484375 L 1.265625 -11.09375 L 1.5625 -5.578125 Z M 5.421875 -7.484375 "/></g></g></g><g fill="#ffffff" fill-opacity="1"><g transform="translate(237.551338, 266.968443)"><g><path d="M 9.328125 -6.640625 L 7.796875 -5.546875 L -1.984375 -8.703125 L 2.796875 -2 L 1.234375 -0.875 L -5.421875 -10.21875 L -3.875 -11.3125 L 5.921875 -8.1875 L 1.140625 -14.890625 L 2.671875 -15.984375 Z M 9.328125 -6.640625 "/></g></g></g><g fill="#ffffff" fill-opacity="1"><g transform="translate(250.14069, 257.499546)"><g><path d="M 2.53125 -2.3125 L 1.125 -1.015625 L -6.609375 -9.484375 L -5.203125 -10.78125 Z M 2.53125 -2.3125 "/></g></g></g><g fill="#ffffff" fill-opacity="1"><g transform="translate(255.908655, 252.324384)"><g><path d="M 7.4375 -8.703125 L 6.21875 -7.265625 L -4.015625 -7.96875 L 2.234375 -2.609375 L 0.984375 -1.15625 L -7.734375 -8.609375 L -6.5 -10.046875 L 3.765625 -9.375 L -2.5 -14.71875 L -1.28125 -16.15625 Z M 7.4375 -8.703125 "/></g></g></g><g fill="#ffffff" fill-opacity="1"><g transform="translate(266.108388, 239.976993)"><g><path d="M 0.015625 -10.921875 L 0.890625 -12.375 L 4.515625 -10.1875 C 4.597656 -9.4375 4.546875 -8.644531 4.359375 -7.8125 C 4.171875 -6.988281 3.878906 -6.25 3.484375 -5.59375 C 2.597656 -4.144531 1.378906 -3.210938 -0.171875 -2.796875 C -1.734375 -2.390625 -3.210938 -2.609375 -4.609375 -3.453125 C -6.003906 -4.296875 -6.867188 -5.507812 -7.203125 -7.09375 C -7.546875 -8.675781 -7.269531 -10.210938 -6.375 -11.703125 C -5.945312 -12.398438 -5.410156 -13.003906 -4.765625 -13.515625 C -4.117188 -14.035156 -3.441406 -14.410156 -2.734375 -14.640625 L -2.0625 -12.953125 C -3.300781 -12.609375 -4.25 -11.894531 -4.90625 -10.8125 C -5.507812 -9.8125 -5.679688 -8.765625 -5.421875 -7.671875 C -5.171875 -6.578125 -4.5625 -5.734375 -3.59375 -5.140625 C -2.613281 -4.546875 -1.578125 -4.390625 -0.484375 -4.671875 C 0.609375 -4.960938 1.457031 -5.609375 2.0625 -6.609375 C 2.519531 -7.367188 2.753906 -8.253906 2.765625 -9.265625 Z M 0.015625 -10.921875 "/></g></g></g><g fill="#ffffff" fill-opacity="1"><g transform="translate(273.547369, 226.95126)"><g/></g></g><path fill="#ffffff" d="M 181.308594 207.484375 L 205.195312 207.484375 C 205.753906 206.816406 206.496094 206.003906 207.355469 205.25 L 179.152344 205.25 C 180.011719 206.003906 180.753906 206.816406 181.308594 207.484375 " fill-opacity="1" fill-rule="nonzero"/><path fill="#ffffff" d="M 165.34375 199.78125 C 163.175781 196.898438 158.589844 198.980469 159.371094 202.5 C 159.460938 202.886719 159.578125 203.289062 159.730469 203.699219 C 162.558594 211.300781 176.539062 207.53125 176.539062 207.53125 C 176.539062 207.53125 169.234375 204.957031 165.34375 199.78125 " fill-opacity="1" fill-rule="nonzero"/><path fill="#ffffff" d="M 198.804688 235.886719 C 181.535156 242.570312 164.476562 239.816406 152.535156 232.558594 C 162.199219 240.085938 174.347656 244.570312 187.546875 244.570312 C 204.507812 244.570312 219.738281 237.164062 230.183594 225.410156 C 223.632812 225.097656 215.476562 229.433594 198.804688 235.886719 " fill-opacity="1" fill-rule="nonzero"/><path fill="#ffffff" d="M 226.777344 203.699219 C 226.929688 203.289062 227.046875 202.886719 227.132812 202.5 C 227.917969 198.980469 223.328125 196.898438 221.164062 199.78125 C 217.273438 204.957031 209.964844 207.53125 209.964844 207.53125 C 209.964844 207.53125 223.949219 211.300781 226.777344 203.699219 " fill-opacity="1" fill-rule="nonzero"/><path fill="#ffffff" d="M 189.355469 221.542969 C 172.386719 226.4375 161.40625 222.25 155.230469 217.957031 C 161.679688 220.488281 170.78125 221.664062 182.980469 218.148438 C 211.082031 210.046875 225.402344 215.785156 231.6875 220.285156 C 223.683594 217.167969 210.375 215.484375 189.355469 221.542969 Z M 137.019531 199.449219 C 136.953125 193.726562 143.554688 191.894531 144.648438 202.519531 C 146.386719 219.386719 159.945312 224.546875 159.945312 224.546875 C 144.453125 221.386719 137.09375 205.726562 137.019531 199.449219 Z M 142.980469 190.65625 C 141.226562 191.667969 138.984375 191.0625 137.972656 189.308594 C 136.964844 187.554688 137.566406 185.3125 139.320312 184.300781 C 141.078125 183.289062 143.320312 183.894531 144.332031 185.648438 C 145.339844 187.40625 144.738281 189.644531 142.980469 190.65625 Z M 143.453125 180.214844 C 142.925781 179.300781 143.238281 178.128906 144.15625 177.601562 C 145.070312 177.074219 146.242188 177.390625 146.769531 178.308594 C 147.296875 179.222656 146.980469 180.390625 146.066406 180.917969 C 145.148438 181.445312 143.980469 181.132812 143.453125 180.214844 Z M 154.152344 159.167969 C 159.832031 158.449219 162.398438 164.800781 151.964844 167.09375 C 135.402344 170.734375 131.816406 184.789062 131.816406 184.789062 C 133.199219 169.039062 147.921875 159.953125 154.152344 159.167969 Z M 181.421875 144.246094 C 186.5 146.882812 185.007812 153.566406 175.117188 149.527344 C 159.421875 143.109375 148.480469 152.636719 148.480469 152.636719 C 158.570312 140.460938 175.847656 141.351562 181.421875 144.246094 Z M 189.914062 149.863281 C 191.941406 149.796875 193.632812 151.386719 193.699219 153.414062 C 193.761719 155.4375 192.171875 157.128906 190.148438 157.195312 C 188.125 157.257812 186.429688 155.667969 186.367188 153.644531 C 186.300781 151.621094 187.890625 149.925781 189.914062 149.863281 Z M 195.355469 158.980469 C 196.410156 158.945312 197.292969 159.773438 197.328125 160.832031 C 197.359375 161.886719 196.53125 162.769531 195.476562 162.804688 C 194.417969 162.839844 193.535156 162.007812 193.503906 160.953125 C 193.46875 159.894531 194.296875 159.011719 195.355469 158.980469 Z M 173.988281 163.375 C 174.839844 162.746094 176.039062 162.929688 176.664062 163.777344 C 177.292969 164.628906 177.113281 165.828125 176.261719 166.457031 C 175.414062 167.082031 174.214844 166.902344 173.585938 166.050781 C 172.957031 165.203125 173.140625 164.003906 173.988281 163.375 Z M 164.332031 158.964844 C 165.964844 157.761719 168.257812 158.105469 169.460938 159.738281 C 170.664062 161.363281 170.320312 163.660156 168.691406 164.863281 C 167.0625 166.066406 164.765625 165.722656 163.5625 164.09375 C 162.359375 162.464844 162.703125 160.167969 164.332031 158.964844 Z M 220.789062 185.023438 L 222.117188 183.707031 C 222.414062 183.417969 222.648438 183.054688 222.804688 182.648438 C 223.222656 181.558594 224.171875 180.859375 225.222656 180.855469 C 226.933594 180.851562 227.957031 180.851562 231.570312 181.785156 C 232.824219 182.105469 231.734375 185.980469 228.625 186.539062 C 226.21875 186.964844 223.847656 186.367188 222.191406 187.378906 C 224.441406 190.171875 225.097656 190.386719 226.160156 191.445312 C 231.582031 196.851562 230.171875 208.09375 229.484375 213.351562 C 229.371094 214.230469 229.152344 215.074219 228.84375 215.871094 C 224.3125 213.652344 217.734375 211.722656 208.546875 211.722656 C 200.734375 211.722656 191.914062 213.125 182.328125 215.890625 C 177.472656 217.289062 172.816406 218 168.488281 218 C 164.726562 218 161.167969 217.460938 157.886719 216.410156 C 157.457031 215.457031 157.164062 214.429688 157.019531 213.351562 C 156.332031 208.09375 154.925781 196.851562 160.347656 191.445312 C 161.40625 190.386719 162.066406 190.171875 164.316406 187.378906 C 162.65625 186.367188 160.285156 186.964844 157.882812 186.539062 C 154.773438 185.980469 153.683594 182.105469 154.933594 181.785156 C 158.550781 180.851562 159.574219 180.851562 161.285156 180.855469 C 162.332031 180.859375 163.285156 181.558594 163.703125 182.648438 C 163.859375 183.054688 164.09375 183.417969 164.386719 183.707031 L 165.71875 185.023438 C 167.550781 180.441406 168.742188 171.449219 178.355469 170.328125 C 189.488281 169.03125 197.019531 169.03125 208.152344 170.328125 C 217.765625 171.449219 218.957031 180.441406 220.789062 185.023438 Z M 187.546875 130.523438 C 186.542969 130.523438 185.542969 130.546875 184.550781 130.601562 C 199.40625 133.5 212.773438 143.074219 219.941406 157.71875 C 220.492188 158.847656 221 159.984375 221.457031 161.132812 C 208.363281 138.722656 179.984375 129.890625 156.296875 141.484375 C 156.261719 141.5 156.230469 141.519531 156.199219 141.535156 C 150.292969 144.4375 145.210938 148.78125 141.347656 154.109375 C 134.539062 163.503906 130.523438 175.054688 130.523438 187.546875 C 130.523438 187.78125 130.523438 188.015625 130.527344 188.25 C 130.859375 215.667969 155.554688 236.355469 182.667969 232.25 C 186.324219 231.695312 190.066406 230.808594 193.847656 229.554688 C 215.066406 222.523438 223.082031 222.335938 230.519531 225.027344 C 239.269531 215.003906 244.570312 201.894531 244.570312 187.546875 C 244.570312 156.050781 219.039062 130.523438 187.546875 130.523438 " fill-opacity="1" fill-rule="nonzero"/><path fill="#ffffff" d="M 178.554688 172.480469 C 171.691406 173.277344 169.957031 178.578125 168.425781 183.253906 C 168.21875 183.890625 168.019531 184.496094 167.816406 185.066406 C 172.40625 185.859375 182.328125 187.308594 193.253906 187.308594 C 204.175781 187.308594 214.097656 185.859375 218.691406 185.066406 C 218.488281 184.496094 218.289062 183.890625 218.082031 183.253906 C 216.550781 178.578125 214.816406 173.277344 207.949219 172.480469 C 202.246094 171.8125 197.710938 171.519531 193.253906 171.519531 C 188.792969 171.519531 184.261719 171.8125 178.554688 172.480469 " fill-opacity="1" fill-rule="nonzero"/><g clip-path="url(#6f2b53c5db)"><path fill="#ffffff" d="M 187.546875 251.332031 C 152.316406 251.332031 123.757812 222.773438 123.757812 187.546875 C 123.757812 152.316406 152.316406 123.757812 187.546875 123.757812 C 222.773438 123.757812 251.332031 152.316406 251.332031 187.546875 C 251.332031 222.773438 222.773438 251.332031 187.546875 251.332031 Z M 187.546875 118.542969 C 149.4375 118.542969 118.542969 149.4375 118.542969 187.546875 C 118.542969 225.652344 149.4375 256.546875 187.546875 256.546875 C 225.652344 256.546875 256.546875 225.652344 256.546875 187.546875 C 256.546875 149.4375 225.652344 118.542969 187.546875 118.542969 " fill-opacity="1" fill-rule="nonzero"/></g><g clip-path="url(#8418d52f85)"><path fill="#ffffff" d="M 278.289062 184.1875 L 280.367188 190.488281 L 287.085938 190.488281 L 281.648438 194.382812 L 283.726562 200.683594 L 278.289062 196.789062 L 272.851562 200.683594 L 274.929688 194.382812 L 269.492188 190.488281 L 276.210938 190.488281 L 278.289062 184.1875 " fill-opacity="1" fill-rule="nonzero"/></g><g clip-path="url(#d68d7f245e)"><path fill="#ffffff" d="M 96.6875 184.1875 L 98.765625 190.488281 L 105.484375 190.488281 L 100.050781 194.382812 L 102.125 200.683594 L 96.6875 196.789062 L 91.253906 200.683594 L 93.328125 194.382812 L 87.894531 190.488281 L 94.613281 190.488281 L 96.6875 184.1875 " fill-opacity="1" fill-rule="nonzero"/></g></svg>