<svg xmlns="http://www.w3.org/2000/svg" xmlns:xlink="http://www.w3.org/1999/xlink" width="500" zoomAndPan="magnify" viewBox="0 0 375 374.999991" height="500" preserveAspectRatio="xMidYMid meet" version="1.0"><defs><g/><clipPath id="9e0e3bbe9c"><path d="M 88.398438 86.765625 L 286.785156 86.765625 L 286.785156 288.421875 L 88.398438 288.421875 Z M 88.398438 86.765625 " clip-rule="nonzero"/></clipPath><clipPath id="9c73cae0c3"><path d="M 86.09375 238.570312 L 288.59375 238.570312 L 288.59375 243.644531 L 86.09375 243.644531 Z M 86.09375 238.570312 " clip-rule="nonzero"/></clipPath><clipPath id="107b8551a9"><path d="M 86.09375 194.273438 L 288.59375 194.273438 L 288.59375 199.351562 L 86.09375 199.351562 Z M 86.09375 194.273438 " clip-rule="nonzero"/></clipPath><clipPath id="6174e09777"><path d="M 178.695312 244.398438 L 196.292969 244.398438 L 196.292969 260.898438 L 178.695312 260.898438 Z M 178.695312 244.398438 " clip-rule="nonzero"/></clipPath><clipPath id="d744da519e"><path d="M 210.277344 251.054688 L 213.6875 251.054688 L 213.6875 254.265625 L 210.277344 254.265625 Z M 210.277344 251.054688 " clip-rule="nonzero"/></clipPath><clipPath id="4f9591d435"><path d="M 161.242188 251 L 165 251 L 165 255 L 161.242188 255 Z M 161.242188 251 " clip-rule="nonzero"/></clipPath></defs><path fill="#ffffff" d="M 146.300781 164.484375 C 146.300781 164.484375 140.234375 164.5625 139.988281 165.503906 C 139.75 166.433594 139.445312 167.226562 142.609375 166.796875 C 145.773438 166.375 147.515625 165.011719 147.296875 164.792969 C 147.074219 164.5625 146.300781 164.484375 146.300781 164.484375 Z M 122.621094 167.753906 C 122.621094 167.753906 120.472656 167.789062 120.429688 168.238281 C 120.386719 168.6875 120.550781 169.1875 121.34375 169.09375 C 122.136719 168.988281 123.3125 168.34375 123.171875 168.097656 C 123.023438 167.851562 122.621094 167.753906 122.621094 167.753906 Z M 101.867188 177.476562 C 114.738281 173.28125 119.765625 191.503906 110.707031 197.765625 C 113.414062 197.898438 115.410156 198.273438 116.816406 197.242188 C 119.96875 194.933594 121.816406 186.277344 117.851562 180.492188 C 116.585938 177.179688 111.824219 173.117188 106.570312 173.980469 C 101.136719 174.878906 98.453125 179.664062 98.453125 179.664062 C 98.453125 179.664062 98.453125 179.664062 98.945312 179.742188 C 99.269531 179.796875 99.6875 178.570312 101.867188 177.476562 Z M 187.40625 175.511719 C 199.242188 174.96875 202.125 187.859375 199.167969 197.359375 L 208.75 197.242188 C 213.378906 180.355469 204.558594 162.207031 185.242188 164.933594 C 176.804688 166.121094 171.902344 172.621094 170.269531 174.835938 C 169.296875 176.160156 169.953125 176.269531 171.03125 175.226562 C 172.65625 173.648438 176.382812 170.105469 182.484375 168.304688 C 190.507812 165.9375 196.382812 168.421875 200.355469 173.492188 C 196.859375 171.160156 191.355469 169.980469 186.355469 171.128906 C 176.535156 173.375 169.867188 182.546875 170.742188 196.929688 C 170.816406 198.101562 176.34375 197.191406 176.34375 197.191406 C 176.34375 197.191406 175.417969 195.035156 175.386719 191.375 C 175.300781 182.414062 179.769531 176.128906 187.40625 175.511719 Z M 252.769531 195.296875 C 252.769531 195.296875 268.113281 194.476562 272.578125 192.847656 C 273.964844 192.347656 275.105469 191.53125 276.015625 190.652344 C 266.160156 193.53125 228.203125 192.128906 228.203125 192.128906 C 228.203125 192.128906 225.441406 192.644531 225.320312 191.199219 C 225.203125 189.75 228.828125 179.042969 231.785156 175.613281 C 233.832031 173.234375 243.460938 173.066406 246.246094 174.335938 C 247.871094 175.078125 249.65625 177.824219 251.847656 178.066406 C 254.039062 178.308594 270.03125 178.707031 272.34375 177.71875 C 274.65625 176.730469 274.980469 175.460938 276.320312 175.203125 C 277.65625 174.945312 282.246094 174.496094 282.605469 174.824219 C 282.839844 175.03125 283.09375 179.601562 281.761719 183.867188 C 281.441406 185.015625 279.429688 191.578125 273.957031 194.386719 C 267.953125 197.476562 260.890625 197.722656 260.890625 197.722656 Z M 94.5 180.597656 C 94.5 180.597656 97.847656 170.796875 100.082031 169.09375 C 102.3125 167.386719 104.398438 167.648438 106.597656 165.417969 C 108.785156 163.1875 116.9375 151.660156 118.523438 150.929688 C 118.808594 150.800781 120.136719 150.285156 122.140625 149.542969 C 121.296875 152.113281 118.621094 160.304688 119.03125 160.507812 C 119.449219 160.714844 122.769531 151.753906 123.980469 148.867188 C 128.496094 147.21875 135.148438 144.863281 141.40625 142.824219 C 139.933594 146.09375 137.148438 157.648438 137.148438 157.648438 C 137.148438 157.648438 137.148438 157.648438 137.25 157.828125 C 137.3125 157.945312 141 146.769531 143.835938 142.046875 C 150.570312 139.910156 156.429688 138.328125 158.007812 138.671875 C 160.953125 139.316406 165.628906 144.578125 169.25 148.734375 C 168.535156 148.109375 167.890625 147.617188 167.441406 147.421875 C 165.695312 146.648438 159.125 147.257812 157.664062 148.1875 C 156.203125 149.125 157.214844 152.285156 157.214844 152.285156 C 157.214844 152.285156 157.664062 153.023438 158.78125 153.261719 C 159.890625 153.507812 164.195312 152.855469 165.984375 152.609375 C 167.0625 152.464844 168.613281 153.023438 169.664062 153.484375 C 154.707031 156.128906 114.222656 164.507812 114.222656 164.507812 C 114.222656 164.507812 111.382812 165.277344 111.765625 165.519531 C 111.984375 165.65625 147.976562 159.925781 180.308594 157.195312 C 189.859375 156.386719 199.242188 156.101562 207.136719 156.046875 C 207.179688 156.21875 207.226562 156.402344 207.289062 156.59375 C 207.816406 158.132812 215.324219 165.96875 219.628906 167.183594 C 223.929688 168.398438 231.84375 167.347656 231.683594 166.980469 C 231.515625 166.613281 226.039062 166.824219 222.511719 165.558594 C 218.976562 164.300781 212.890625 158.335938 212.566406 157.238281 C 212.429688 156.785156 212.578125 156.371094 212.792969 156.046875 C 215.953125 156.0625 218.75 156.109375 221.0625 156.164062 C 222.847656 156.507812 224.71875 156.996094 226.484375 157.6875 C 232.816406 160.164062 238.417969 165.519531 238.253906 166.128906 C 238.09375 166.734375 237.039062 166.824219 237.039062 166.824219 C 237.039062 166.824219 239.511719 167.386719 239.71875 165.476562 C 239.882812 163.902344 236.902344 159.003906 235.71875 157.304688 C 236.894531 157.585938 238.996094 158.175781 239.800781 158.941406 C 240.933594 160.042969 245.761719 169.417969 248.277344 170.675781 C 250.792969 171.933594 277.128906 172.382812 278.027344 170.957031 C 278.914062 169.539062 273.558594 157.851562 273.558594 157.851562 C 273.558594 157.851562 261.511719 154.925781 246.085938 153.957031 C 245.136719 153.894531 244.160156 153.832031 243.15625 153.777344 C 243.050781 153.773438 242.953125 153.757812 242.839844 153.753906 C 237.601562 153.402344 214.804688 152.46875 201.25 152.84375 C 194.945312 153.023438 182.386719 154.253906 178.167969 149.648438 C 176.988281 148.359375 170.066406 142.140625 165.09375 138.09375 L 186.148438 149.53125 L 225.105469 150.261719 C 225.105469 150.261719 218.855469 144.820312 212.039062 141.980469 C 203.074219 138.242188 170.578125 134.363281 159.589844 134.492188 C 159.074219 134.449219 158.472656 134.480469 157.851562 134.5625 L 157.847656 134.5625 C 155.859375 134.8125 153.707031 135.507812 153.707031 135.507812 C 153.707031 135.507812 118.195312 148.414062 116.296875 150.199219 C 114.386719 151.984375 105.863281 164.402344 104.523438 164.808594 C 103.183594 165.214844 100.097656 165.503906 98.761719 167.613281 C 97.964844 168.863281 95.296875 174.488281 94.324219 177.808594 C 93.664062 180.082031 94.5 180.597656 94.5 180.597656 " fill-opacity="1" fill-rule="evenodd"/><path stroke-linecap="round" transform="matrix(0.0461364, 0, 0, -0.0461412, 86.092748, 288.421387)" fill="none" stroke-linejoin="round" d="M 1305.000278 2686.037808 C 1305.000278 2686.037808 1173.511813 2684.344636 1168.177767 2663.941911 C 1163.013056 2643.793162 1156.408999 2626.607464 1224.989589 2635.919911 C 1293.57018 2645.063041 1331.331838 2674.608896 1326.590464 2679.349778 C 1321.764423 2684.344636 1305.000278 2686.037808 1305.000278 2686.037808 Z M 791.746526 2615.178552 C 791.746526 2615.178552 745.179458 2614.416624 744.248117 2604.680884 C 743.316775 2594.945144 746.872806 2584.108842 764.060287 2586.140648 C 781.247768 2588.426431 806.732655 2602.395101 803.684628 2607.728594 C 800.467267 2613.062086 791.746526 2615.178552 791.746526 2615.178552 Z M 341.908652 2404.463272 C 620.887721 2495.386619 729.854659 2100.454203 533.510969 1964.746452 C 592.185474 1961.868059 635.450513 1953.740833 665.930776 1976.090706 C 734.257364 2026.123944 774.305042 2213.727423 688.367635 2339.106825 C 660.935399 2410.897326 557.725844 2498.94228 443.848197 2480.232727 C 326.075849 2460.761247 267.909348 2357.05445 267.909348 2357.05445 C 267.909348 2357.05445 267.909348 2357.05445 278.57744 2355.361278 C 285.604834 2354.176057 294.664245 2380.758861 341.908652 2404.463272 Z M 2195.955283 2447.046552 C 2452.497492 2458.814099 2514.98203 2179.440686 2450.888811 1973.550947 L 2658.577933 1976.090706 C 2758.908797 2342.069876 2567.729817 2735.393778 2149.049546 2676.302068 C 1966.167971 2650.56585 1859.910389 2509.693924 1824.519418 2461.692492 C 1803.437237 2432.993223 1817.661359 2430.622782 1841.02956 2453.226631 C 1876.251197 2487.428709 1957.023892 2564.214068 2089.274364 2603.241688 C 2263.181195 2654.544805 2390.520958 2600.701929 2476.6277 2490.815054 C 2400.85038 2541.356244 2281.55402 2566.923144 2173.179753 2542.033513 C 1960.325921 2493.354812 1815.798676 2294.576396 1834.764173 1982.863394 C 1836.372853 1957.465811 1956.177218 1977.191267 1956.177218 1977.191267 C 1956.177218 1977.191267 1936.111046 2023.92282 1935.433706 2103.247938 C 1933.571024 2297.454789 2030.430524 2433.670492 2195.955283 2447.046552 Z M 3612.694815 2018.250693 C 3612.694815 2018.250693 3945.268345 2036.029001 4042.043178 2071.331642 C 4072.100104 2082.167944 4096.822983 2099.861593 4116.550487 2118.90978 C 3902.934647 2056.516385 3080.221563 2086.908826 3080.221563 2086.908826 C 3080.221563 2086.908826 3020.361715 2075.733889 3017.737025 2107.057575 C 3015.197004 2138.465919 3093.768347 2370.515169 3157.861565 2444.845428 C 3202.227281 2496.402522 3410.932411 2500.042842 3471.300264 2472.528794 C 3506.521901 2456.443658 3545.2149 2396.928655 3592.713309 2391.679821 C 3640.211718 2386.430988 3986.840036 2377.795809 4036.963135 2399.214438 C 4087.086233 2420.633066 4094.113627 2448.147114 4123.154543 2453.734582 C 4152.110793 2459.322051 4251.594983 2469.057791 4259.384383 2461.946468 C 4264.464427 2457.459561 4269.967808 2358.408988 4241.096226 2265.961786 C 4234.153499 2241.072154 4190.54979 2098.84569 4071.930769 2037.976149 C 3941.796982 1971.011189 3788.71833 1965.677697 3788.71833 1965.677697 Z M 182.225944 2336.821042 C 182.225944 2336.821042 254.785902 2549.229494 303.215652 2586.140648 C 351.560735 2623.136461 396.773125 2617.464334 444.440868 2665.8044 C 491.85461 2714.144466 668.555465 2963.972024 702.930427 2979.803184 C 709.111147 2982.596918 737.898062 2993.771855 781.332436 3009.856991 C 763.044278 2954.151625 705.047112 2776.622521 713.937189 2772.220273 C 722.9966 2767.733367 794.963887 2961.940218 821.210779 3024.50293 C 919.086289 3060.228864 1063.274863 3111.278005 1198.912031 3155.4698 C 1166.992423 3084.610543 1106.62457 2834.190375 1106.62457 2834.190375 C 1106.62457 2834.190375 1106.62457 2834.190375 1108.825922 2830.296079 C 1110.180601 2827.756321 1190.106622 3069.964604 1251.575151 3172.316863 C 1397.541742 3218.625123 1524.542835 3252.91186 1558.748463 3245.461902 C 1622.587679 3231.493231 1723.934552 3117.458084 1802.421228 3027.381323 C 1786.927094 3040.926701 1772.956974 3051.593685 1763.220224 3055.826616 C 1725.373898 3072.589021 1582.963338 3059.382278 1551.297732 3039.233528 C 1519.632126 3018.915462 1541.560982 2950.426647 1541.560982 2950.426647 C 1541.560982 2950.426647 1551.297732 2934.426169 1575.512607 2929.261994 C 1599.558148 2923.928502 1692.861618 2938.06649 1731.639285 2943.399982 C 1755.007486 2946.532351 1788.620442 2934.426169 1811.395972 2924.436453 C 1487.204514 2867.122575 609.711625 2685.529856 609.711625 2685.529856 C 609.711625 2685.529856 548.158428 2668.85211 556.455833 2663.603276 C 561.197207 2660.640225 1341.322591 2784.834406 2042.114625 2844.010774 C 2249.126407 2861.535106 2452.497492 2867.715185 2623.610298 2868.900405 C 2624.54164 2865.175426 2625.557649 2861.196472 2626.912327 2857.0482 C 2638.342425 2823.692708 2801.07316 2653.867536 2894.37663 2627.538709 C 2987.595433 2601.209881 3159.131576 2623.983047 3155.660213 2631.940956 C 3152.019515 2639.898866 3033.315826 2635.327301 2956.861168 2662.75669 C 2880.237175 2690.016763 2748.325372 2819.29046 2741.297978 2843.079529 C 2738.33462 2852.899928 2741.551981 2861.873741 2746.208687 2868.900405 C 2814.704611 2868.561771 2875.326466 2867.545868 2925.449564 2866.360647 C 2964.142564 2858.910689 3004.698246 2848.328363 3042.967909 2833.343789 C 3180.213758 2779.670231 3301.626803 2663.603276 3298.070772 2650.396533 C 3294.599409 2637.274449 3271.739212 2635.327301 3271.739212 2635.327301 C 3271.739212 2635.327301 3325.333674 2623.136461 3329.821046 2664.534521 C 3333.377076 2698.651941 3268.775854 2804.813838 3243.121633 2841.640333 C 3268.606519 2835.544913 3314.157578 2822.761463 3331.599061 2806.168375 C 3356.152606 2782.294647 3460.801507 2579.113984 3515.32731 2551.853911 C 3569.853113 2524.593839 4140.680694 2514.858099 4160.154195 2545.758491 C 4179.373694 2576.489567 4063.294695 2829.788128 4063.294695 2829.788128 C 4063.294695 2829.788128 3802.180446 2893.197426 3467.828901 2914.192762 C 3447.254724 2915.547299 3426.087875 2916.901837 3404.328354 2918.087058 C 3402.042334 2918.171716 3399.925649 2918.510351 3397.470295 2918.595009 C 3283.931317 2926.214284 2789.812396 2946.447692 2496.016533 2938.320465 C 2359.363357 2934.426169 2087.157679 2907.758707 1995.716892 3007.571208 C 1970.147339 3035.50855 1820.116713 3170.285056 1712.335119 3257.991376 L 2168.692381 3010.110967 L 3013.080319 2994.279807 C 3013.080319 2994.279807 2877.612486 3112.20925 2729.86788 3173.756059 C 2535.556207 3254.774349 1831.208142 3338.840349 1593.038758 3336.046615 C 1581.862662 3336.977859 1568.823883 3336.30059 1555.361767 3334.52276 L 1555.2771 3334.52276 C 1512.181395 3329.104609 1465.52966 3314.035376 1465.52966 3314.035376 C 1465.52966 3314.035376 695.818366 3034.323329 654.670012 2995.634344 C 613.267655 2956.94536 428.523398 2687.815639 399.482481 2679.011143 C 370.441565 2670.206648 303.554322 2663.941911 274.598073 2618.226261 C 257.325924 2591.135506 199.498093 2469.227108 178.415911 2397.26729 C 164.107121 2347.995979 182.225944 2336.821042 182.225944 2336.821042 Z M 182.225944 2336.821042 " stroke="#000000" stroke-width="2.268" stroke-opacity="1" stroke-miterlimit="10"/><g clip-path="url(#9e0e3bbe9c)"><path fill="#ffffff" d="M 96.902344 160.378906 C 92.214844 140.976562 88.675781 125.417969 88.804688 123.296875 C 89.8125 107.203125 109.816406 96.628906 136.984375 91.269531 C 152.191406 88.265625 169.898438 86.765625 187.632812 86.765625 C 205.363281 86.765625 223.0625 88.261719 238.269531 91.269531 C 265.398438 96.625 285.375 107.1875 286.382812 123.296875 C 286.496094 125.179688 283.71875 137.648438 279.816406 153.984375 C 276.488281 152.96875 272.425781 151.867188 268.179688 150.789062 C 271.742188 136.113281 274.234375 125.269531 274.160156 124.011719 C 273.574219 114.601562 257.65625 107.589844 235.921875 103.300781 C 221.363281 100.421875 204.484375 98.984375 187.632812 98.984375 C 170.78125 98.984375 153.898438 100.429688 139.332031 103.300781 C 117.558594 107.601562 101.613281 114.613281 101.027344 124.011719 C 100.953125 125.265625 103.40625 135.949219 106.925781 150.464844 L 105.589844 153.292969 C 104.621094 155.359375 100.234375 158.3125 97.363281 160.023438 C 97.207031 160.117188 97.054688 160.234375 96.902344 160.378906 Z M 184.398438 287.527344 L 121.367188 250.707031 C 119.726562 249.746094 118.695312 248.144531 118.40625 246.398438 C 118.179688 245.503906 117.652344 243.4375 116.890625 240.457031 L 129.460938 240.308594 L 129.738281 241.386719 L 187.589844 275.183594 L 245.449219 241.386719 L 246.082031 238.914062 L 258.730469 238.761719 C 257.4375 243.828125 256.65625 246.867188 256.644531 246.914062 C 256.222656 248.566406 255.167969 249.886719 253.804688 250.683594 L 253.816406 250.707031 L 190.683594 287.582031 C 188.671875 288.761719 186.265625 288.65625 184.398438 287.527344 " fill-opacity="1" fill-rule="nonzero"/></g><path fill="#ffffff" d="M 274.007812 160 C 274.128906 160.042969 276.503906 160.550781 277.859375 162.273438 C 279.222656 164 279.925781 166.207031 280.171875 166.128906 C 280.417969 166.046875 279.523438 161.238281 277.597656 159.613281 C 275.671875 157.992188 272.765625 157.667969 272.765625 157.667969 C 272.765625 157.667969 272.6875 159.375 272.765625 159.53125 C 272.847656 159.699219 274.007812 160 274.007812 160 " fill-opacity="1" fill-rule="evenodd"/><path fill="#ffffff" d="M 258.761719 168.828125 C 258.761719 168.828125 253.886719 159.015625 254.1875 158.152344 C 254.484375 157.28125 255.320312 157.953125 255.609375 158.28125 C 255.902344 158.613281 259.40625 168.902344 259.171875 169 C 258.933594 169.097656 258.761719 168.828125 258.761719 168.828125 Z M 265.828125 169.527344 C 265.828125 169.527344 260.953125 159.714844 261.253906 158.84375 C 261.554688 157.980469 262.394531 158.648438 262.683594 158.980469 C 262.96875 159.304688 266.472656 169.59375 266.242188 169.695312 C 266.007812 169.792969 265.828125 169.527344 265.828125 169.527344 Z M 272.664062 169.226562 C 272.664062 169.226562 268.539062 160.132812 268.910156 159.332031 C 269.269531 158.527344 270.0625 159.144531 270.328125 159.453125 C 270.589844 159.757812 273.300781 169.292969 273.058594 169.386719 C 272.816406 169.480469 272.664062 169.226562 272.664062 169.226562 Z M 252.203125 168.632812 C 252.203125 168.632812 246.675781 159.128906 246.921875 158.242188 C 247.160156 157.367188 248.042969 157.984375 248.359375 158.300781 C 248.667969 158.613281 252.847656 168.667969 252.621094 168.777344 C 252.394531 168.890625 252.203125 168.632812 252.203125 168.632812 " fill-opacity="1" fill-rule="evenodd"/><g clip-path="url(#9c73cae0c3)"><path fill="#ffffff" d="M 86.09375 238.601562 L 299.835938 238.601562 C 299.835938 238.601562 287.453125 241.039062 264.601562 242.171875 C 245.074219 243.144531 205.519531 243.285156 194.441406 243.308594 L 194.4375 243.308594 C 194.4375 243.308594 193.914062 243.308594 192.964844 243.308594 C 192.011719 243.308594 191.492188 243.308594 191.492188 243.308594 L 191.484375 243.308594 C 180.40625 243.285156 140.851562 243.144531 121.324219 242.171875 C 98.472656 241.039062 86.09375 238.601562 86.09375 238.601562 " fill-opacity="1" fill-rule="evenodd"/></g><g clip-path="url(#107b8551a9)"><path fill="#ffffff" d="M 86.09375 199.304688 L 299.835938 199.304688 C 299.835938 199.304688 287.453125 196.867188 264.601562 195.734375 C 245.074219 194.761719 205.519531 194.621094 194.441406 194.597656 L 194.4375 194.597656 C 194.4375 194.597656 193.914062 194.597656 192.964844 194.597656 C 192.011719 194.597656 191.492188 194.597656 191.492188 194.597656 L 191.484375 194.597656 C 180.40625 194.621094 140.851562 194.761719 121.324219 195.734375 C 98.472656 196.867188 86.09375 199.304688 86.09375 199.304688 " fill-opacity="1" fill-rule="evenodd"/></g><g clip-path="url(#6174e09777)"><path fill="#ffffff" d="M 187.492188 244.398438 L 189.566406 250.699219 L 196.289062 250.699219 L 190.851562 254.59375 L 192.929688 260.898438 L 187.492188 257 L 182.054688 260.898438 L 184.132812 254.59375 L 178.695312 250.699219 L 185.414062 250.699219 L 187.492188 244.398438 " fill-opacity="1" fill-rule="nonzero"/></g><path fill="#ffffff" d="M 203.296875 248.738281 L 204.28125 251.722656 L 207.464844 251.722656 L 204.886719 253.570312 L 205.871094 256.558594 L 203.296875 254.710938 L 200.71875 256.558594 L 201.703125 253.570312 L 199.128906 251.722656 L 202.3125 251.722656 L 203.296875 248.738281 " fill-opacity="1" fill-rule="nonzero"/><g clip-path="url(#d744da519e)"><path fill="#ffffff" d="M 211.996094 251.0625 L 212.394531 252.273438 L 213.6875 252.273438 L 212.640625 253.023438 L 213.039062 254.234375 L 211.996094 253.484375 L 210.949219 254.234375 L 211.347656 253.023438 L 210.304688 252.273438 L 211.597656 252.273438 L 211.996094 251.0625 " fill-opacity="1" fill-rule="nonzero"/></g><g clip-path="url(#4f9591d435)"><path fill="#ffffff" d="M 162.988281 251.0625 L 163.386719 252.273438 L 164.679688 252.273438 L 163.636719 253.023438 L 164.035156 254.234375 L 162.988281 253.484375 L 161.945312 254.234375 L 162.34375 253.023438 L 161.296875 252.273438 L 162.589844 252.273438 L 162.988281 251.0625 " fill-opacity="1" fill-rule="nonzero"/></g><path fill="#ffffff" d="M 171.6875 248.738281 L 172.671875 251.722656 L 175.855469 251.722656 L 173.28125 253.570312 L 174.265625 256.558594 L 171.6875 254.710938 L 169.113281 256.558594 L 170.097656 253.570312 L 167.519531 251.722656 L 170.703125 251.722656 L 171.6875 248.738281 " fill-opacity="1" fill-rule="nonzero"/><g fill="#ffffff" fill-opacity="1"><g transform="translate(48.691408, 229.097769)"><g><path d="M 7.609375 0.453125 C 5.566406 0.453125 3.675781 0.273438 1.9375 -0.078125 C 0.195312 -0.429688 -1.117188 -0.832031 -2.015625 -1.28125 L -0.546875 -7.609375 L 6.5 -7.609375 C 6.34375 -6.953125 6.378906 -6.472656 6.609375 -6.171875 C 6.847656 -5.878906 7.363281 -5.734375 8.15625 -5.734375 C 8.820312 -5.734375 9.316406 -5.832031 9.640625 -6.03125 C 9.972656 -6.238281 10.179688 -6.539062 10.265625 -6.9375 C 10.359375 -7.28125 10.289062 -7.570312 10.0625 -7.8125 C 9.84375 -8.0625 9.421875 -8.316406 8.796875 -8.578125 L 6.265625 -9.53125 C 4.117188 -10.425781 2.664062 -11.484375 1.90625 -12.703125 C 1.144531 -13.921875 1 -15.5625 1.46875 -17.625 C 2.070312 -20.144531 3.347656 -22.0625 5.296875 -23.375 C 7.242188 -24.6875 10.148438 -25.34375 14.015625 -25.34375 C 15.867188 -25.34375 17.566406 -25.15625 19.109375 -24.78125 C 20.660156 -24.40625 21.863281 -23.910156 22.71875 -23.296875 L 21.40625 -17.5625 L 15 -17.5625 C 15.238281 -18.632812 14.695312 -19.171875 13.375 -19.171875 C 12.738281 -19.171875 12.269531 -19.085938 11.96875 -18.921875 C 11.664062 -18.765625 11.472656 -18.484375 11.390625 -18.078125 C 11.304688 -17.710938 11.390625 -17.421875 11.640625 -17.203125 C 11.898438 -16.992188 12.359375 -16.773438 13.015625 -16.546875 L 15.578125 -15.578125 C 17.648438 -14.816406 19.0625 -13.820312 19.8125 -12.59375 C 20.570312 -11.363281 20.71875 -9.757812 20.25 -7.78125 C 19.632812 -5.070312 18.253906 -3.019531 16.109375 -1.625 C 13.960938 -0.238281 11.128906 0.453125 7.609375 0.453125 Z M 7.609375 0.453125 "/></g></g></g><g fill="#ffffff" fill-opacity="1"><g transform="translate(70.254112, 229.097769)"><g><path d="M -1 -5.25 L 0.609375 -5.25 L 3.9375 -19.640625 L 2.328125 -19.640625 L 3.546875 -24.890625 L 17.59375 -24.890625 C 20.351562 -24.890625 22.316406 -24.296875 23.484375 -23.109375 C 24.660156 -21.929688 24.945312 -20.019531 24.34375 -17.375 C 23.726562 -14.726562 22.554688 -12.8125 20.828125 -11.625 C 19.097656 -10.445312 16.859375 -9.859375 14.109375 -9.859375 L 10.625 -9.859375 L 9.5625 -5.25 L 12.640625 -5.25 L 11.421875 0 L -2.203125 0 Z M 12.765625 -14.40625 C 14.003906 -14.40625 14.785156 -15.085938 15.109375 -16.453125 L 15.359375 -17.59375 C 15.523438 -18.300781 15.488281 -18.816406 15.25 -19.140625 C 15.019531 -19.472656 14.597656 -19.640625 13.984375 -19.640625 L 12.890625 -19.640625 L 11.671875 -14.40625 Z M 12.765625 -14.40625 "/></g></g></g><g fill="#ffffff" fill-opacity="1"><g transform="translate(93.864313, 229.097769)"><g><path d="M 22.5 -5.25 L 23.78125 -5.25 L 22.5625 0 L 10.015625 0 L 11.234375 -5.25 L 13.15625 -5.25 L 13.25 -7.8125 L 8.890625 -7.8125 L 7.78125 -5.25 L 9.6875 -5.25 L 8.484375 0 L -2.46875 0 L -1.25 -5.25 L 0.03125 -5.25 L 9.984375 -24.890625 L 21.625 -24.890625 Z M 10.375 -11.203125 L 13.3125 -11.203125 L 13.46875 -17.5625 L 13.15625 -17.5625 Z M 10.375 -11.203125 "/></g></g></g><g fill="#ffffff" fill-opacity="1"><g transform="translate(119.649979, 229.097769)"><g><path d="M -1 -5.25 L 0.609375 -5.25 L 3.9375 -19.640625 L 2.328125 -19.640625 L 3.546875 -24.890625 L 18.234375 -24.890625 C 20.992188 -24.890625 22.960938 -24.320312 24.140625 -23.1875 C 25.328125 -22.0625 25.632812 -20.234375 25.0625 -17.703125 C 24.71875 -16.265625 24.140625 -15.023438 23.328125 -13.984375 C 22.515625 -12.941406 21.519531 -12.21875 20.34375 -11.8125 L 20.3125 -11.484375 C 22.300781 -11.171875 23.039062 -9.914062 22.53125 -7.71875 L 21.953125 -5.25 L 23.453125 -5.25 L 22.234375 0 L 12.09375 0 L 13.828125 -7.515625 C 14.015625 -8.347656 14.035156 -8.976562 13.890625 -9.40625 C 13.753906 -9.832031 13.441406 -10.117188 12.953125 -10.265625 C 12.460938 -10.421875 11.738281 -10.5 10.78125 -10.5 L 9.5625 -5.25 L 11.671875 -5.25 L 10.46875 0 L -2.203125 0 Z M 13.40625 -14.40625 C 14.019531 -14.40625 14.519531 -14.566406 14.90625 -14.890625 C 15.289062 -15.222656 15.570312 -15.742188 15.75 -16.453125 L 16 -17.59375 C 16.164062 -18.300781 16.128906 -18.816406 15.890625 -19.140625 C 15.660156 -19.472656 15.238281 -19.640625 14.625 -19.640625 L 12.890625 -19.640625 L 11.671875 -14.40625 Z M 13.40625 -14.40625 "/></g></g></g><g fill="#ffffff" fill-opacity="1"><g transform="translate(145.243693, 229.097769)"><g><path d="M 22.96875 -5.25 L 24.578125 -5.25 L 23.359375 0 L 14.625 0 L 12.125 -9.921875 L 10.375 -8.703125 L 9.5625 -5.25 L 11.109375 -5.25 L 9.890625 0 L -2.203125 0 L -1 -5.25 L 0.609375 -5.25 L 3.9375 -19.640625 L 2.328125 -19.640625 L 3.546875 -24.890625 L 15.640625 -24.890625 L 14.4375 -19.640625 L 12.890625 -19.640625 L 11.90625 -15.421875 L 17.859375 -19.640625 L 15.84375 -19.640625 L 17.0625 -24.890625 L 28.953125 -24.890625 L 27.75 -19.640625 L 26.140625 -19.640625 L 19.78125 -15.234375 Z M 22.96875 -5.25 "/></g></g></g><g fill="#ffffff" fill-opacity="1"><g transform="translate(171.957131, 229.097769)"><g><path d="M -2.203125 0 L -1 -5.25 L 0.609375 -5.25 L 3.9375 -19.640625 L 2.328125 -19.640625 L 3.546875 -24.890625 L 17.0625 -24.890625 L 15.84375 -19.640625 L 12.890625 -19.640625 L 9.5625 -5.25 L 12.453125 -5.25 L 13.125 -8.1875 L 19.484375 -8.1875 L 17.59375 0 Z M -2.203125 0 "/></g></g></g><g fill="#ffffff" fill-opacity="1"><g transform="translate(192.847999, 229.097769)"><g><path d="M -2.203125 0 L -1 -5.25 L 0.609375 -5.25 L 3.9375 -19.640625 L 2.328125 -19.640625 L 3.546875 -24.890625 L 25.15625 -24.890625 L 22.90625 -15.234375 L 15.75 -15.234375 L 16.765625 -19.640625 L 12.890625 -19.640625 L 11.71875 -14.59375 L 14.53125 -14.59375 L 13.6875 -10.9375 L 10.875 -10.9375 L 9.5625 -5.25 L 13.4375 -5.25 L 14.625 -10.296875 L 21.796875 -10.296875 L 19.390625 0 Z M -2.203125 0 "/></g></g></g><g fill="#ffffff" fill-opacity="1"><g transform="translate(215.658395, 229.097769)"><g/></g></g><g fill="#ffffff" fill-opacity="1"><g transform="translate(225.256039, 229.097769)"><g><path d="M 22.5 -5.25 L 23.78125 -5.25 L 22.5625 0 L 10.015625 0 L 11.234375 -5.25 L 13.15625 -5.25 L 13.25 -7.8125 L 8.890625 -7.8125 L 7.78125 -5.25 L 9.6875 -5.25 L 8.484375 0 L -2.46875 0 L -1.25 -5.25 L 0.03125 -5.25 L 9.984375 -24.890625 L 21.625 -24.890625 Z M 10.375 -11.203125 L 13.3125 -11.203125 L 13.46875 -17.5625 L 13.15625 -17.5625 Z M 10.375 -11.203125 "/></g></g></g><g fill="#ffffff" fill-opacity="1"><g transform="translate(251.041705, 229.097769)"><g><path d="M 9.703125 0.453125 C 6.347656 0.453125 3.921875 -0.28125 2.421875 -1.75 C 0.929688 -3.226562 0.570312 -5.617188 1.34375 -8.921875 L 3.84375 -19.640625 L 2.234375 -19.640625 L 3.421875 -24.890625 L 15.265625 -24.890625 L 14.078125 -19.640625 L 12.796875 -19.640625 L 9.921875 -7.296875 C 9.773438 -6.585938 9.816406 -6.066406 10.046875 -5.734375 C 10.285156 -5.410156 10.710938 -5.25 11.328125 -5.25 C 11.941406 -5.25 12.441406 -5.410156 12.828125 -5.734375 C 13.210938 -6.066406 13.476562 -6.585938 13.625 -7.296875 L 16.515625 -19.640625 L 15.234375 -19.640625 L 16.421875 -24.890625 L 27.390625 -24.890625 L 26.203125 -19.640625 L 24.609375 -19.640625 L 22.109375 -8.921875 C 21.335938 -5.617188 19.898438 -3.226562 17.796875 -1.75 C 15.703125 -0.28125 13.003906 0.453125 9.703125 0.453125 Z M 9.703125 0.453125 "/></g></g></g><g fill="#ffffff" fill-opacity="1"><g transform="translate(276.027567, 229.097769)"><g><path d="M 25.59375 -17.15625 L 20.09375 -17.15625 L 20.671875 -19.640625 L 18.625 -19.640625 L 15.296875 -5.25 L 17.53125 -5.25 L 16.3125 0 L 2.875 0 L 4.09375 -5.25 L 6.34375 -5.25 L 9.65625 -19.640625 L 7.609375 -19.640625 L 7.046875 -17.15625 L 1.53125 -17.15625 L 3.328125 -24.890625 L 27.390625 -24.890625 Z M 25.59375 -17.15625 "/></g></g></g><g fill="#ffffff" fill-opacity="1"><g transform="translate(300.98143, 229.097769)"><g><path d="M 9.734375 0.453125 C 5.828125 0.453125 3.046875 -0.570312 1.390625 -2.625 C -0.265625 -4.675781 -0.566406 -7.953125 0.484375 -12.453125 C 1.523438 -16.953125 3.34375 -20.222656 5.9375 -22.265625 C 8.53125 -24.316406 11.773438 -25.34375 15.671875 -25.34375 C 19.578125 -25.34375 22.359375 -24.316406 24.015625 -22.265625 C 25.671875 -20.222656 25.972656 -16.953125 24.921875 -12.453125 C 23.878906 -7.953125 22.0625 -4.675781 19.46875 -2.625 C 16.875 -0.570312 13.628906 0.453125 9.734375 0.453125 Z M 11.046875 -5.25 C 11.765625 -5.25 12.347656 -5.441406 12.796875 -5.828125 C 13.242188 -6.210938 13.566406 -6.804688 13.765625 -7.609375 L 16 -17.28125 C 16.1875 -18.09375 16.140625 -18.6875 15.859375 -19.0625 C 15.585938 -19.445312 15.09375 -19.640625 14.375 -19.640625 C 13.644531 -19.640625 13.054688 -19.445312 12.609375 -19.0625 C 12.160156 -18.6875 11.835938 -18.09375 11.640625 -17.28125 L 9.40625 -7.609375 C 9.21875 -6.785156 9.257812 -6.1875 9.53125 -5.8125 C 9.8125 -5.4375 10.316406 -5.25 11.046875 -5.25 Z M 11.046875 -5.25 "/></g></g></g><g fill="#ffffff" fill-opacity="1"><g transform="translate(120.83, 133.955335)"><g><path d="M -3.265625 -8.53125 L -0.96875 -9.6875 L 3.109375 -1.5625 L 0.8125 -0.40625 Z M -3.265625 -8.53125 "/></g></g></g><g fill="#ffffff" fill-opacity="1"><g transform="translate(124.58021, 131.985054)"><g><path d="M 5.09375 -12.1875 L 8.75 -3.859375 L 6.828125 -3 L 1.1875 -5.828125 L 3.140625 -1.390625 L 0.828125 -0.359375 L -2.828125 -8.6875 L -0.875 -9.546875 L 4.734375 -6.734375 L 2.796875 -11.171875 Z M 5.09375 -12.1875 "/></g></g></g><g fill="#ffffff" fill-opacity="1"><g transform="translate(133.98124, 127.880127)"><g><path d="M 0.234375 -7.609375 L -2.390625 -6.640625 L -3.078125 -8.546875 L 4.578125 -11.359375 L 5.265625 -9.453125 L 2.65625 -8.484375 L 5.09375 -1.859375 L 2.671875 -0.984375 Z M 0.234375 -7.609375 "/></g></g></g><g fill="#ffffff" fill-opacity="1"><g transform="translate(141.541528, 125.09511)"><g><path d="M 7.28125 -4.28125 L 7.859375 -2.375 L 0.875 -0.265625 L -1.765625 -8.96875 L 5.0625 -11.03125 L 5.640625 -9.125 L 1.25 -7.796875 L 1.703125 -6.34375 L 5.5625 -7.515625 L 6.109375 -5.671875 L 2.25 -4.5 L 2.734375 -2.90625 Z M 7.28125 -4.28125 "/></g></g></g><g fill="#ffffff" fill-opacity="1"><g transform="translate(149.692471, 122.604984)"><g><path d="M 4.203125 -3.484375 L 2.828125 -3.15625 L 3.390625 -0.796875 L 0.875 -0.203125 L -1.21875 -9.046875 L 2.828125 -10.015625 C 3.640625 -10.203125 4.367188 -10.234375 5.015625 -10.109375 C 5.671875 -9.992188 6.210938 -9.722656 6.640625 -9.296875 C 7.078125 -8.878906 7.378906 -8.335938 7.546875 -7.671875 C 7.691406 -7.035156 7.671875 -6.441406 7.484375 -5.890625 C 7.304688 -5.347656 6.96875 -4.875 6.46875 -4.46875 L 9.046875 -2.140625 L 6.359375 -1.5 Z M 5.03125 -7.078125 C 4.925781 -7.492188 4.710938 -7.785156 4.390625 -7.953125 C 4.078125 -8.117188 3.664062 -8.140625 3.15625 -8.015625 L 1.765625 -7.6875 L 2.375 -5.078125 L 3.765625 -5.40625 C 4.273438 -5.53125 4.632812 -5.734375 4.84375 -6.015625 C 5.0625 -6.304688 5.125 -6.660156 5.03125 -7.078125 Z M 5.03125 -7.078125 "/></g></g></g><g fill="#ffffff" fill-opacity="1"><g transform="translate(158.905593, 120.486438)"><g><path d="M -0.78125 -9.109375 L 1.75 -9.578125 L 3.421875 -0.640625 L 0.890625 -0.171875 Z M -0.78125 -9.109375 "/></g></g></g><g fill="#ffffff" fill-opacity="1"><g transform="translate(163.047054, 119.621225)"><g><path d="M 5.484375 -0.546875 C 4.535156 -0.410156 3.648438 -0.492188 2.828125 -0.796875 C 2.003906 -1.109375 1.328125 -1.59375 0.796875 -2.25 C 0.273438 -2.90625 -0.046875 -3.675781 -0.171875 -4.5625 C -0.285156 -5.46875 -0.175781 -6.300781 0.15625 -7.0625 C 0.5 -7.832031 1.023438 -8.46875 1.734375 -8.96875 C 2.441406 -9.476562 3.269531 -9.800781 4.21875 -9.9375 C 5.164062 -10.0625 6.050781 -9.96875 6.875 -9.65625 C 7.695312 -9.351562 8.367188 -8.875 8.890625 -8.21875 C 9.421875 -7.570312 9.742188 -6.796875 9.859375 -5.890625 C 9.984375 -5.003906 9.875 -4.175781 9.53125 -3.40625 C 9.195312 -2.632812 8.675781 -1.992188 7.96875 -1.484375 C 7.257812 -0.984375 6.429688 -0.671875 5.484375 -0.546875 Z M 5.1875 -2.671875 C 5.644531 -2.722656 6.046875 -2.878906 6.390625 -3.140625 C 6.734375 -3.410156 6.984375 -3.753906 7.140625 -4.171875 C 7.304688 -4.585938 7.351562 -5.046875 7.28125 -5.546875 C 7.21875 -6.054688 7.050781 -6.492188 6.78125 -6.859375 C 6.519531 -7.222656 6.1875 -7.488281 5.78125 -7.65625 C 5.382812 -7.820312 4.957031 -7.878906 4.5 -7.828125 C 4.039062 -7.765625 3.640625 -7.597656 3.296875 -7.328125 C 2.960938 -7.054688 2.710938 -6.710938 2.546875 -6.296875 C 2.390625 -5.878906 2.34375 -5.414062 2.40625 -4.90625 C 2.476562 -4.40625 2.644531 -3.972656 2.90625 -3.609375 C 3.175781 -3.242188 3.507812 -2.976562 3.90625 -2.8125 C 4.300781 -2.65625 4.726562 -2.609375 5.1875 -2.671875 Z M 5.1875 -2.671875 "/></g></g></g><g fill="#ffffff" fill-opacity="1"><g transform="translate(173.712042, 118.212126)"><g><path d="M 4.71875 -2.734375 L 3.328125 -2.640625 L 3.484375 -0.21875 L 0.90625 -0.0625 L 0.328125 -9.140625 L 4.46875 -9.390625 C 5.300781 -9.453125 6.03125 -9.363281 6.65625 -9.125 C 7.28125 -8.894531 7.769531 -8.535156 8.125 -8.046875 C 8.488281 -7.566406 8.691406 -6.984375 8.734375 -6.296875 C 8.773438 -5.640625 8.65625 -5.054688 8.375 -4.546875 C 8.101562 -4.046875 7.6875 -3.640625 7.125 -3.328125 L 9.28125 -0.59375 L 6.515625 -0.40625 Z M 6.140625 -6.125 C 6.109375 -6.550781 5.945312 -6.875 5.65625 -7.09375 C 5.375 -7.3125 4.96875 -7.40625 4.4375 -7.375 L 3.03125 -7.28125 L 3.203125 -4.609375 L 4.609375 -4.703125 C 5.140625 -4.734375 5.53125 -4.867188 5.78125 -5.109375 C 6.039062 -5.359375 6.160156 -5.695312 6.140625 -6.125 Z M 6.140625 -6.125 "/></g></g></g><g fill="#ffffff" fill-opacity="1"><g transform="translate(183.157513, 117.676761)"><g/></g></g><g fill="#ffffff" fill-opacity="1"><g transform="translate(186.784145, 117.542371)"><g><path d="M 5.453125 0.328125 C 4.492188 0.304688 3.640625 0.0820312 2.890625 -0.34375 C 2.140625 -0.769531 1.554688 -1.347656 1.140625 -2.078125 C 0.734375 -2.804688 0.539062 -3.625 0.5625 -4.53125 C 0.582031 -5.445312 0.816406 -6.257812 1.265625 -6.96875 C 1.722656 -7.675781 2.335938 -8.21875 3.109375 -8.59375 C 3.878906 -8.976562 4.742188 -9.160156 5.703125 -9.140625 C 6.523438 -9.109375 7.269531 -8.9375 7.9375 -8.625 C 8.601562 -8.3125 9.144531 -7.875 9.5625 -7.3125 L 7.890625 -5.875 C 7.316406 -6.601562 6.609375 -6.976562 5.765625 -7 C 5.273438 -7.019531 4.832031 -6.925781 4.4375 -6.71875 C 4.039062 -6.507812 3.734375 -6.207031 3.515625 -5.8125 C 3.296875 -5.425781 3.179688 -4.976562 3.171875 -4.46875 C 3.160156 -3.957031 3.253906 -3.5 3.453125 -3.09375 C 3.648438 -2.695312 3.9375 -2.382812 4.3125 -2.15625 C 4.695312 -1.9375 5.132812 -1.816406 5.625 -1.796875 C 6.46875 -1.773438 7.191406 -2.113281 7.796875 -2.8125 L 9.40625 -1.28125 C 8.945312 -0.738281 8.378906 -0.328125 7.703125 -0.046875 C 7.023438 0.234375 6.273438 0.359375 5.453125 0.328125 Z M 5.453125 0.328125 "/></g></g></g><g fill="#ffffff" fill-opacity="1"><g transform="translate(196.168776, 117.815691)"><g><path d="M 1.6875 -8.984375 L 4.25 -8.765625 L 3.640625 -1.75 L 7.96875 -1.375 L 7.796875 0.671875 L 0.90625 0.078125 Z M 1.6875 -8.984375 "/></g></g></g><g fill="#ffffff" fill-opacity="1"><g transform="translate(203.877261, 118.4653)"><g><path d="M 8.421875 -0.796875 L 8.140625 1.171875 L 0.890625 0.125 L 2.1875 -8.875 L 9.265625 -7.859375 L 8.984375 -5.890625 L 4.4375 -6.546875 L 4.21875 -5.03125 L 8.21875 -4.453125 L 7.9375 -2.5625 L 3.9375 -3.140625 L 3.703125 -1.484375 Z M 8.421875 -0.796875 "/></g></g></g><g fill="#ffffff" fill-opacity="1"><g transform="translate(212.311646, 119.64483)"><g><path d="M 7.203125 -0.296875 L 3.453125 -1.09375 L 2.390625 0.5 L -0.1875 -0.03125 L 5.609375 -8.125 L 8.09375 -7.59375 L 10.1875 2.140625 L 7.5625 1.578125 Z M 6.875 -2.3125 L 6.3125 -5.390625 L 4.578125 -2.796875 Z M 6.875 -2.3125 "/></g></g></g><g fill="#ffffff" fill-opacity="1"><g transform="translate(222.080332, 121.67803)"><g><path d="M 11.6875 -6.140625 L 9.203125 2.609375 L 7.171875 2.03125 L 4.640625 -3.71875 L 3.3125 0.9375 L 0.875 0.25 L 3.359375 -8.5 L 5.40625 -7.921875 L 7.9375 -2.171875 L 9.265625 -6.828125 Z M 11.6875 -6.140625 "/></g></g></g><g fill="#ffffff" fill-opacity="1"><g transform="translate(231.970877, 124.557427)"><g><path d="M 3.78125 -8.3125 L 6.21875 -7.484375 L 3.296875 1.125 L 0.859375 0.296875 Z M 3.78125 -8.3125 "/></g></g></g><g fill="#ffffff" fill-opacity="1"><g transform="translate(236.0085, 125.839561)"><g><path d="M 12.234375 -4.9375 L 8.890625 3.515625 L 6.9375 2.734375 L 4.984375 -3.234375 L 3.203125 1.265625 L 0.84375 0.328125 L 4.1875 -8.125 L 6.15625 -7.34375 L 8.109375 -1.359375 L 9.890625 -5.859375 Z M 12.234375 -4.9375 "/></g></g></g><g fill="#ffffff" fill-opacity="1"><g transform="translate(245.530104, 129.606948)"><g><path d="M 8.359375 -1.265625 L 10.421875 -0.28125 L 8.796875 3.125 C 8.171875 3.238281 7.507812 3.238281 6.8125 3.125 C 6.113281 3.019531 5.457031 2.820312 4.84375 2.53125 C 3.988281 2.113281 3.300781 1.554688 2.78125 0.859375 C 2.257812 0.160156 1.957031 -0.601562 1.875 -1.4375 C 1.800781 -2.269531 1.957031 -3.097656 2.34375 -3.921875 C 2.738281 -4.742188 3.285156 -5.382812 3.984375 -5.84375 C 4.691406 -6.300781 5.484375 -6.546875 6.359375 -6.578125 C 7.234375 -6.609375 8.101562 -6.414062 8.96875 -6 C 9.738281 -5.632812 10.363281 -5.175781 10.84375 -4.625 C 11.332031 -4.070312 11.664062 -3.457031 11.84375 -2.78125 L 9.734375 -2.15625 C 9.472656 -3.03125 8.957031 -3.648438 8.1875 -4.015625 C 7.476562 -4.359375 6.804688 -4.414062 6.171875 -4.1875 C 5.535156 -3.96875 5.046875 -3.503906 4.703125 -2.796875 C 4.492188 -2.335938 4.398438 -1.882812 4.421875 -1.4375 C 4.441406 -0.988281 4.582031 -0.582031 4.84375 -0.21875 C 5.101562 0.144531 5.457031 0.4375 5.90625 0.65625 C 6.351562 0.875 6.8125 0.984375 7.28125 0.984375 Z M 8.359375 -1.265625 "/></g></g></g></svg>